G75*
%MOIN*%
%OFA0B0*%
%FSLAX25Y25*%
%IPPOS*%
%LPD*%
%AMOC8*
5,1,8,0,0,1.08239X$1,22.5*
%
%ADD10C,0.01600*%
%ADD11C,0.00800*%
%ADD12C,0.00000*%
%ADD13C,0.01000*%
%ADD14C,0.00500*%
%ADD15R,0.42000X0.03000*%
%ADD16R,0.07500X0.02000*%
%ADD17R,0.03000X0.02000*%
D10*
X0167772Y0112602D02*
X0367772Y0112602D01*
X0367772Y0262602D01*
X0167772Y0262602D01*
X0167772Y0112602D01*
D11*
X0167378Y0171795D02*
X0161669Y0171795D01*
X0161669Y0182228D01*
X0153205Y0182228D01*
X0150252Y0179276D01*
X0135291Y0179276D01*
X0135291Y0182622D01*
X0130665Y0182622D01*
X0130665Y0197583D01*
X0135291Y0197583D01*
X0135291Y0200929D01*
X0150252Y0200929D01*
X0153205Y0197976D01*
X0161669Y0197976D01*
X0161669Y0208409D01*
X0167378Y0208409D01*
X0167378Y0205260D02*
X0167378Y0174945D01*
X0181372Y0214802D02*
X0182773Y0214802D01*
X0183474Y0215503D01*
X0183474Y0218305D01*
X0182773Y0219006D01*
X0181372Y0219006D01*
X0180672Y0218305D01*
X0180672Y0215503D01*
X0181372Y0214802D01*
X0185276Y0217605D02*
X0185976Y0218305D01*
X0185976Y0219707D01*
X0187578Y0219006D02*
X0190380Y0219006D01*
X0192181Y0219006D02*
X0192882Y0219006D01*
X0192882Y0214802D01*
X0192181Y0214802D02*
X0193583Y0214802D01*
X0195251Y0215503D02*
X0195251Y0217605D01*
X0195251Y0215503D02*
X0195951Y0214802D01*
X0198053Y0214802D01*
X0198053Y0214102D02*
X0197353Y0213401D01*
X0196652Y0213401D01*
X0198053Y0214102D02*
X0198053Y0217605D01*
X0199855Y0217605D02*
X0199855Y0214802D01*
X0202657Y0214802D02*
X0202657Y0216904D01*
X0201956Y0217605D01*
X0199855Y0217605D01*
X0204459Y0217605D02*
X0204459Y0214802D01*
X0207261Y0214802D02*
X0207261Y0216904D01*
X0206560Y0217605D01*
X0204459Y0217605D01*
X0198820Y0222302D02*
X0198820Y0224404D01*
X0198120Y0225105D01*
X0196018Y0225105D01*
X0196018Y0222302D01*
X0194350Y0222302D02*
X0192949Y0222302D01*
X0193649Y0222302D02*
X0193649Y0225105D01*
X0192949Y0225105D01*
X0193649Y0226506D02*
X0193649Y0227207D01*
X0190580Y0226506D02*
X0190580Y0222302D01*
X0189880Y0222302D02*
X0191281Y0222302D01*
X0188078Y0223003D02*
X0188078Y0224404D01*
X0187377Y0225105D01*
X0185976Y0225105D01*
X0185276Y0224404D01*
X0185276Y0223003D01*
X0185976Y0222302D01*
X0187377Y0222302D01*
X0188078Y0223003D01*
X0189880Y0226506D02*
X0190580Y0226506D01*
X0183474Y0225805D02*
X0182773Y0226506D01*
X0181372Y0226506D01*
X0180672Y0225805D01*
X0180672Y0223003D01*
X0181372Y0222302D01*
X0182773Y0222302D01*
X0183474Y0223003D01*
X0187578Y0219006D02*
X0187578Y0214802D01*
X0187578Y0216904D02*
X0188979Y0216904D01*
X0189880Y0230502D02*
X0189880Y0234706D01*
X0189880Y0232604D02*
X0192682Y0232604D01*
X0194483Y0233305D02*
X0195184Y0232604D01*
X0196585Y0232604D01*
X0197286Y0231904D01*
X0197286Y0231203D01*
X0196585Y0230502D01*
X0195184Y0230502D01*
X0194483Y0231203D01*
X0192682Y0230502D02*
X0192682Y0234706D01*
X0194483Y0234005D02*
X0194483Y0233305D01*
X0194483Y0234005D02*
X0195184Y0234706D01*
X0196585Y0234706D01*
X0197286Y0234005D01*
X0199087Y0238002D02*
X0201890Y0238002D01*
X0200489Y0238002D02*
X0200489Y0242206D01*
X0199087Y0240805D01*
X0197286Y0240104D02*
X0194483Y0240104D01*
X0192682Y0242206D02*
X0189880Y0242206D01*
X0189880Y0238002D01*
X0188078Y0238002D02*
X0186677Y0239404D01*
X0187377Y0239404D02*
X0185276Y0239404D01*
X0185276Y0238002D02*
X0185276Y0242206D01*
X0187377Y0242206D01*
X0188078Y0241505D01*
X0188078Y0240104D01*
X0187377Y0239404D01*
X0189880Y0240104D02*
X0191281Y0240104D01*
X0190580Y0245502D02*
X0192682Y0245502D01*
X0192682Y0248305D01*
X0194483Y0249706D02*
X0195184Y0249706D01*
X0195184Y0245502D01*
X0194483Y0245502D02*
X0195885Y0245502D01*
X0197553Y0246203D02*
X0197553Y0247604D01*
X0198253Y0248305D01*
X0200355Y0248305D01*
X0200355Y0249706D02*
X0200355Y0245502D01*
X0198253Y0245502D01*
X0197553Y0246203D01*
X0202157Y0246203D02*
X0202157Y0248305D01*
X0202157Y0246203D02*
X0202857Y0245502D01*
X0204959Y0245502D01*
X0204959Y0244802D02*
X0204258Y0244101D01*
X0203558Y0244101D01*
X0204959Y0244802D02*
X0204959Y0248305D01*
X0206761Y0249706D02*
X0208862Y0249706D01*
X0209563Y0249005D01*
X0209563Y0247604D01*
X0208862Y0246904D01*
X0206761Y0246904D01*
X0208162Y0246904D02*
X0209563Y0245502D01*
X0211364Y0245502D02*
X0211364Y0249706D01*
X0214167Y0249706D01*
X0212766Y0247604D02*
X0211364Y0247604D01*
X0206761Y0245502D02*
X0206761Y0249706D01*
X0190580Y0245502D02*
X0189880Y0246203D01*
X0189880Y0248305D01*
X0188078Y0247604D02*
X0187377Y0248305D01*
X0185976Y0248305D01*
X0185276Y0247604D01*
X0185276Y0246203D01*
X0185976Y0245502D01*
X0187377Y0245502D01*
X0188078Y0246203D01*
X0188078Y0247604D01*
X0183474Y0249706D02*
X0183474Y0245502D01*
X0180672Y0245502D02*
X0180672Y0249706D01*
X0182073Y0248305D01*
X0183474Y0249706D01*
X0183474Y0242206D02*
X0182073Y0240805D01*
X0180672Y0242206D01*
X0180672Y0238002D01*
X0183474Y0238002D02*
X0183474Y0242206D01*
X0182773Y0234706D02*
X0183474Y0234005D01*
X0183474Y0232604D01*
X0182773Y0231904D01*
X0180672Y0231904D01*
X0182073Y0231904D02*
X0183474Y0230502D01*
X0185276Y0231203D02*
X0185976Y0230502D01*
X0187377Y0230502D01*
X0188078Y0231203D01*
X0188078Y0232604D01*
X0187377Y0233305D01*
X0185976Y0233305D01*
X0185276Y0232604D01*
X0185276Y0231203D01*
X0182773Y0234706D02*
X0180672Y0234706D01*
X0180672Y0230502D01*
X0249465Y0112209D02*
X0249465Y0106500D01*
X0259898Y0106500D01*
X0259898Y0098035D01*
X0256945Y0095083D01*
X0256945Y0080122D01*
X0260291Y0080122D01*
X0260291Y0075496D01*
X0275252Y0075496D01*
X0275252Y0080122D01*
X0278598Y0080122D01*
X0278598Y0095083D01*
X0275646Y0098035D01*
X0275646Y0106500D01*
X0286079Y0106500D01*
X0286079Y0112209D01*
X0282929Y0112209D02*
X0252614Y0112209D01*
X0368165Y0171795D02*
X0373874Y0171795D01*
X0373874Y0182228D01*
X0382339Y0182228D01*
X0385291Y0179276D01*
X0400252Y0179276D01*
X0400252Y0182622D01*
X0404878Y0182622D01*
X0404878Y0197583D01*
X0400252Y0197583D01*
X0400252Y0200929D01*
X0385291Y0200929D01*
X0382339Y0197976D01*
X0373874Y0197976D01*
X0373874Y0208409D01*
X0368165Y0208409D01*
X0368165Y0205260D02*
X0368165Y0174945D01*
D12*
X0367772Y0168102D02*
X0367772Y0212102D01*
X0289772Y0112602D02*
X0245772Y0112602D01*
X0167772Y0168102D02*
X0167772Y0212102D01*
D13*
X0297772Y0247602D02*
X0300272Y0247602D01*
X0300272Y0242602D01*
X0305272Y0242602D01*
X0305272Y0252602D01*
X0300272Y0252602D01*
X0300272Y0247602D01*
X0305272Y0242602D02*
X0325272Y0242602D01*
X0325272Y0247602D01*
X0327772Y0247602D01*
X0325272Y0247602D02*
X0325272Y0252602D01*
X0305272Y0252602D01*
D14*
X0287272Y0256102D02*
X0287772Y0244602D01*
X0284472Y0254702D02*
X0284474Y0254765D01*
X0284480Y0254827D01*
X0284490Y0254889D01*
X0284503Y0254951D01*
X0284521Y0255011D01*
X0284542Y0255070D01*
X0284567Y0255128D01*
X0284596Y0255184D01*
X0284628Y0255238D01*
X0284663Y0255290D01*
X0284701Y0255339D01*
X0284743Y0255387D01*
X0284787Y0255431D01*
X0284835Y0255473D01*
X0284884Y0255511D01*
X0284936Y0255546D01*
X0284990Y0255578D01*
X0285046Y0255607D01*
X0285104Y0255632D01*
X0285163Y0255653D01*
X0285223Y0255671D01*
X0285285Y0255684D01*
X0285347Y0255694D01*
X0285409Y0255700D01*
X0285472Y0255702D01*
X0285535Y0255700D01*
X0285597Y0255694D01*
X0285659Y0255684D01*
X0285721Y0255671D01*
X0285781Y0255653D01*
X0285840Y0255632D01*
X0285898Y0255607D01*
X0285954Y0255578D01*
X0286008Y0255546D01*
X0286060Y0255511D01*
X0286109Y0255473D01*
X0286157Y0255431D01*
X0286201Y0255387D01*
X0286243Y0255339D01*
X0286281Y0255290D01*
X0286316Y0255238D01*
X0286348Y0255184D01*
X0286377Y0255128D01*
X0286402Y0255070D01*
X0286423Y0255011D01*
X0286441Y0254951D01*
X0286454Y0254889D01*
X0286464Y0254827D01*
X0286470Y0254765D01*
X0286472Y0254702D01*
X0286470Y0254639D01*
X0286464Y0254577D01*
X0286454Y0254515D01*
X0286441Y0254453D01*
X0286423Y0254393D01*
X0286402Y0254334D01*
X0286377Y0254276D01*
X0286348Y0254220D01*
X0286316Y0254166D01*
X0286281Y0254114D01*
X0286243Y0254065D01*
X0286201Y0254017D01*
X0286157Y0253973D01*
X0286109Y0253931D01*
X0286060Y0253893D01*
X0286008Y0253858D01*
X0285954Y0253826D01*
X0285898Y0253797D01*
X0285840Y0253772D01*
X0285781Y0253751D01*
X0285721Y0253733D01*
X0285659Y0253720D01*
X0285597Y0253710D01*
X0285535Y0253704D01*
X0285472Y0253702D01*
X0285409Y0253704D01*
X0285347Y0253710D01*
X0285285Y0253720D01*
X0285223Y0253733D01*
X0285163Y0253751D01*
X0285104Y0253772D01*
X0285046Y0253797D01*
X0284990Y0253826D01*
X0284936Y0253858D01*
X0284884Y0253893D01*
X0284835Y0253931D01*
X0284787Y0253973D01*
X0284743Y0254017D01*
X0284701Y0254065D01*
X0284663Y0254114D01*
X0284628Y0254166D01*
X0284596Y0254220D01*
X0284567Y0254276D01*
X0284542Y0254334D01*
X0284521Y0254393D01*
X0284503Y0254453D01*
X0284490Y0254515D01*
X0284480Y0254577D01*
X0284474Y0254639D01*
X0284472Y0254702D01*
X0286272Y0257102D02*
X0287272Y0256102D01*
X0286272Y0257102D02*
X0249272Y0257102D01*
X0248272Y0256102D01*
X0247772Y0244602D01*
D15*
X0267772Y0241602D03*
D16*
X0250522Y0244102D03*
X0285022Y0244102D03*
D17*
X0272772Y0244102D03*
X0262772Y0244102D03*
M02*
