G75*
%MOIN*%
%OFA0B0*%
%FSLAX25Y25*%
%IPPOS*%
%LPD*%
%AMOC8*
5,1,8,0,0,1.08239X$1,22.5*
%
%ADD10C,0.01600*%
%ADD11C,0.01000*%
%ADD12C,0.05000*%
%ADD13C,0.00600*%
%ADD14C,0.00800*%
%ADD15C,0.01100*%
%ADD16C,0.00000*%
D10*
X0167772Y0112602D02*
X0367772Y0112602D01*
X0367772Y0262602D01*
X0167772Y0262602D01*
X0167772Y0112602D01*
X0050702Y0226093D02*
X0007522Y0226093D01*
X0007522Y0243872D02*
X0050702Y0243872D01*
D11*
X0187772Y0282602D02*
X0197772Y0252602D01*
D12*
X0051972Y0234983D02*
X0007522Y0234983D01*
D13*
X0062122Y0283267D02*
X0063190Y0283267D01*
X0064257Y0284335D01*
X0064257Y0289673D01*
X0059987Y0289673D02*
X0059987Y0286470D01*
X0061055Y0285402D01*
X0064257Y0285402D01*
X0057812Y0285402D02*
X0057812Y0288605D01*
X0056744Y0289673D01*
X0053542Y0289673D01*
X0053542Y0285402D01*
X0051366Y0285402D02*
X0051366Y0289673D01*
X0049231Y0291808D01*
X0047096Y0289673D01*
X0047096Y0285402D01*
X0047096Y0288605D02*
X0051366Y0288605D01*
X0038475Y0288605D02*
X0038475Y0287538D01*
X0034205Y0287538D01*
X0034205Y0288605D02*
X0035273Y0289673D01*
X0037408Y0289673D01*
X0038475Y0288605D01*
X0037408Y0285402D02*
X0035273Y0285402D01*
X0034205Y0286470D01*
X0034205Y0288605D01*
X0032030Y0289673D02*
X0028827Y0289673D01*
X0027760Y0288605D01*
X0027760Y0286470D01*
X0028827Y0285402D01*
X0032030Y0285402D01*
X0025584Y0285402D02*
X0025584Y0288605D01*
X0024517Y0289673D01*
X0022382Y0289673D01*
X0022382Y0287538D02*
X0025584Y0287538D01*
X0025584Y0285402D02*
X0022382Y0285402D01*
X0021314Y0286470D01*
X0022382Y0287538D01*
X0019152Y0285402D02*
X0017017Y0285402D01*
X0018085Y0285402D02*
X0018085Y0291808D01*
X0017017Y0291808D01*
X0014842Y0290740D02*
X0014842Y0288605D01*
X0013774Y0287538D01*
X0010572Y0287538D01*
X0010572Y0285402D02*
X0010572Y0291808D01*
X0013774Y0291808D01*
X0014842Y0290740D01*
X0072878Y0291808D02*
X0072878Y0285402D01*
X0072878Y0287538D02*
X0076081Y0287538D01*
X0077148Y0288605D01*
X0077148Y0290740D01*
X0076081Y0291808D01*
X0072878Y0291808D01*
X0075013Y0287538D02*
X0077148Y0285402D01*
X0079324Y0286470D02*
X0079324Y0288605D01*
X0080391Y0289673D01*
X0082526Y0289673D01*
X0083594Y0288605D01*
X0083594Y0287538D01*
X0079324Y0287538D01*
X0079324Y0286470D02*
X0080391Y0285402D01*
X0082526Y0285402D01*
X0085769Y0286470D02*
X0085769Y0288605D01*
X0086837Y0289673D01*
X0090039Y0289673D01*
X0090039Y0283267D01*
X0090039Y0285402D02*
X0086837Y0285402D01*
X0085769Y0286470D01*
X0092215Y0286470D02*
X0093282Y0285402D01*
X0096485Y0285402D01*
X0096485Y0289673D01*
X0098660Y0289673D02*
X0099728Y0289673D01*
X0099728Y0285402D01*
X0100795Y0285402D02*
X0098660Y0285402D01*
X0102957Y0285402D02*
X0102957Y0289673D01*
X0105092Y0289673D02*
X0106160Y0289673D01*
X0105092Y0289673D02*
X0102957Y0287538D01*
X0099728Y0291808D02*
X0099728Y0292875D01*
X0092215Y0289673D02*
X0092215Y0286470D01*
X0108328Y0286470D02*
X0108328Y0288605D01*
X0109396Y0289673D01*
X0111531Y0289673D01*
X0112599Y0288605D01*
X0112599Y0287538D01*
X0108328Y0287538D01*
X0108328Y0286470D02*
X0109396Y0285402D01*
X0111531Y0285402D01*
X0114774Y0286470D02*
X0114774Y0288605D01*
X0115841Y0289673D01*
X0119044Y0289673D01*
X0119044Y0291808D02*
X0119044Y0285402D01*
X0115841Y0285402D01*
X0114774Y0286470D01*
X0127665Y0285402D02*
X0127665Y0291808D01*
X0129800Y0289673D01*
X0131935Y0291808D01*
X0131935Y0285402D01*
X0134110Y0286470D02*
X0135178Y0287538D01*
X0138381Y0287538D01*
X0138381Y0288605D02*
X0138381Y0285402D01*
X0135178Y0285402D01*
X0134110Y0286470D01*
X0137313Y0289673D02*
X0138381Y0288605D01*
X0137313Y0289673D02*
X0135178Y0289673D01*
X0140556Y0289673D02*
X0140556Y0285402D01*
X0140556Y0287538D02*
X0142691Y0289673D01*
X0143759Y0289673D01*
X0145927Y0291808D02*
X0145927Y0285402D01*
X0145927Y0287538D02*
X0149130Y0289673D01*
X0151298Y0289673D02*
X0152366Y0289673D01*
X0152366Y0285402D01*
X0153433Y0285402D02*
X0151298Y0285402D01*
X0149130Y0285402D02*
X0145927Y0287538D01*
X0152366Y0291808D02*
X0152366Y0292875D01*
X0155595Y0289673D02*
X0158798Y0289673D01*
X0159866Y0288605D01*
X0159866Y0285402D01*
X0162041Y0286470D02*
X0163108Y0285402D01*
X0166311Y0285402D01*
X0166311Y0284335D02*
X0166311Y0289673D01*
X0163108Y0289673D01*
X0162041Y0288605D01*
X0162041Y0286470D01*
X0164176Y0283267D02*
X0165244Y0283267D01*
X0166311Y0284335D01*
X0168486Y0285402D02*
X0171689Y0285402D01*
X0172757Y0286470D01*
X0171689Y0287538D01*
X0169554Y0287538D01*
X0168486Y0288605D01*
X0169554Y0289673D01*
X0172757Y0289673D01*
X0181377Y0289673D02*
X0182445Y0289673D01*
X0182445Y0285402D01*
X0183512Y0285402D02*
X0181377Y0285402D01*
X0185674Y0285402D02*
X0185674Y0289673D01*
X0188877Y0289673D01*
X0189945Y0288605D01*
X0189945Y0285402D01*
X0182445Y0291808D02*
X0182445Y0292875D01*
X0198565Y0291808D02*
X0202836Y0291808D01*
X0200700Y0291808D02*
X0200700Y0285402D01*
X0205011Y0285402D02*
X0205011Y0291808D01*
X0206078Y0289673D02*
X0208214Y0289673D01*
X0209281Y0288605D01*
X0209281Y0285402D01*
X0211456Y0285402D02*
X0213591Y0285402D01*
X0212524Y0285402D02*
X0212524Y0289673D01*
X0211456Y0289673D01*
X0212524Y0291808D02*
X0212524Y0292875D01*
X0215753Y0288605D02*
X0216821Y0289673D01*
X0220024Y0289673D01*
X0218956Y0287538D02*
X0216821Y0287538D01*
X0215753Y0288605D01*
X0215753Y0285402D02*
X0218956Y0285402D01*
X0220024Y0286470D01*
X0218956Y0287538D01*
X0228644Y0288605D02*
X0232915Y0288605D01*
X0232915Y0289673D02*
X0230779Y0291808D01*
X0228644Y0289673D01*
X0228644Y0285402D01*
X0232915Y0285402D02*
X0232915Y0289673D01*
X0235090Y0289673D02*
X0235090Y0285402D01*
X0235090Y0287538D02*
X0237225Y0289673D01*
X0238293Y0289673D01*
X0240461Y0288605D02*
X0241529Y0289673D01*
X0243664Y0289673D01*
X0244731Y0288605D01*
X0244731Y0287538D01*
X0240461Y0287538D01*
X0240461Y0288605D02*
X0240461Y0286470D01*
X0241529Y0285402D01*
X0243664Y0285402D01*
X0246907Y0286470D02*
X0247974Y0287538D01*
X0251177Y0287538D01*
X0251177Y0288605D02*
X0251177Y0285402D01*
X0247974Y0285402D01*
X0246907Y0286470D01*
X0250109Y0289673D02*
X0251177Y0288605D01*
X0250109Y0289673D02*
X0247974Y0289673D01*
X0206078Y0289673D02*
X0205011Y0288605D01*
X0155595Y0289673D02*
X0155595Y0285402D01*
D14*
X0129580Y0245936D02*
X0130981Y0244535D01*
X0130981Y0243134D01*
X0129580Y0241733D01*
X0127778Y0241733D02*
X0124976Y0241733D01*
X0127778Y0244535D01*
X0124976Y0244535D01*
X0123174Y0245236D02*
X0123174Y0242433D01*
X0122474Y0241733D01*
X0121072Y0241733D01*
X0120372Y0242433D01*
X0120372Y0245236D01*
X0121072Y0245936D01*
X0122474Y0245936D01*
X0123174Y0245236D01*
X0113966Y0241733D02*
X0111164Y0241733D01*
X0112565Y0241733D02*
X0112565Y0245936D01*
X0111164Y0244535D01*
X0109496Y0245936D02*
X0108095Y0244535D01*
X0108095Y0243134D01*
X0109496Y0241733D01*
X0106229Y0238316D02*
X0105528Y0238316D01*
X0106229Y0238316D02*
X0106229Y0234113D01*
X0106929Y0234113D02*
X0105528Y0234113D01*
X0103727Y0234113D02*
X0101625Y0234113D01*
X0100924Y0234813D01*
X0101625Y0235514D01*
X0103727Y0235514D01*
X0103727Y0236214D02*
X0103727Y0234113D01*
X0103727Y0236214D02*
X0103026Y0236915D01*
X0101625Y0236915D01*
X0098556Y0236915D02*
X0098556Y0234113D01*
X0099256Y0234113D02*
X0097855Y0234113D01*
X0097855Y0236915D02*
X0098556Y0236915D01*
X0098556Y0238316D02*
X0098556Y0239017D01*
X0098887Y0241733D02*
X0098887Y0245936D01*
X0100989Y0245936D01*
X0101689Y0245236D01*
X0101689Y0243834D01*
X0100989Y0243134D01*
X0098887Y0243134D01*
X0100288Y0243134D02*
X0101689Y0241733D01*
X0097085Y0241733D02*
X0094283Y0241733D01*
X0094283Y0245936D01*
X0097085Y0245936D01*
X0095684Y0243834D02*
X0094283Y0243834D01*
X0092481Y0243834D02*
X0092481Y0245236D01*
X0091781Y0245936D01*
X0089679Y0245936D01*
X0089679Y0241733D01*
X0089679Y0243134D02*
X0091781Y0243134D01*
X0092481Y0243834D01*
X0087878Y0243834D02*
X0087878Y0245236D01*
X0087177Y0245936D01*
X0085075Y0245936D01*
X0085075Y0241733D01*
X0085075Y0243134D02*
X0087177Y0243134D01*
X0087878Y0243834D01*
X0083274Y0242433D02*
X0082573Y0241733D01*
X0081172Y0241733D01*
X0080471Y0242433D01*
X0080471Y0245236D01*
X0081172Y0245936D01*
X0082573Y0245936D01*
X0083274Y0245236D01*
X0083274Y0242433D01*
X0078670Y0242433D02*
X0077969Y0241733D01*
X0076568Y0241733D01*
X0075867Y0242433D01*
X0075867Y0245236D01*
X0076568Y0245936D01*
X0077969Y0245936D01*
X0078670Y0245236D01*
X0069462Y0245236D02*
X0069462Y0243834D01*
X0068761Y0243134D01*
X0066659Y0243134D01*
X0066659Y0241733D02*
X0066659Y0245936D01*
X0068761Y0245936D01*
X0069462Y0245236D01*
X0064858Y0245236D02*
X0064858Y0242433D01*
X0064157Y0241733D01*
X0062756Y0241733D01*
X0062055Y0242433D01*
X0062055Y0245236D01*
X0062756Y0245936D01*
X0064157Y0245936D01*
X0064858Y0245236D01*
X0060254Y0245936D02*
X0057452Y0245936D01*
X0058853Y0245936D02*
X0058853Y0241733D01*
X0058722Y0238316D02*
X0061524Y0238316D01*
X0063326Y0238316D02*
X0065427Y0238316D01*
X0066128Y0237616D01*
X0066128Y0236214D01*
X0065427Y0235514D01*
X0063326Y0235514D01*
X0064727Y0235514D02*
X0066128Y0234113D01*
X0067930Y0236214D02*
X0070732Y0236214D01*
X0070031Y0234113D02*
X0070031Y0238316D01*
X0067930Y0236214D01*
X0063326Y0234113D02*
X0063326Y0238316D01*
X0060123Y0236214D02*
X0058722Y0236214D01*
X0058722Y0234113D02*
X0058722Y0238316D01*
X0059553Y0229426D02*
X0060254Y0228725D01*
X0060254Y0228025D01*
X0059553Y0227324D01*
X0057452Y0227324D01*
X0059553Y0227324D02*
X0060254Y0226624D01*
X0060254Y0225923D01*
X0059553Y0225222D01*
X0057452Y0225222D01*
X0057452Y0229426D01*
X0059553Y0229426D01*
X0062055Y0228725D02*
X0062055Y0225923D01*
X0062756Y0225222D01*
X0064157Y0225222D01*
X0064858Y0225923D01*
X0064858Y0228725D01*
X0064157Y0229426D01*
X0062756Y0229426D01*
X0062055Y0228725D01*
X0066659Y0229426D02*
X0069462Y0229426D01*
X0068061Y0229426D02*
X0068061Y0225222D01*
X0072665Y0225222D02*
X0072665Y0229426D01*
X0074066Y0229426D02*
X0071263Y0229426D01*
X0075867Y0228725D02*
X0075867Y0225923D01*
X0076568Y0225222D01*
X0077969Y0225222D01*
X0078670Y0225923D01*
X0078670Y0228725D01*
X0077969Y0229426D01*
X0076568Y0229426D01*
X0075867Y0228725D01*
X0080471Y0229426D02*
X0080471Y0225222D01*
X0083274Y0225222D02*
X0083274Y0229426D01*
X0081872Y0228025D01*
X0080471Y0229426D01*
X0079940Y0234113D02*
X0079940Y0238316D01*
X0078539Y0236915D01*
X0077137Y0238316D01*
X0077137Y0234113D01*
X0081741Y0234813D02*
X0082442Y0235514D01*
X0084544Y0235514D01*
X0084544Y0236214D02*
X0084544Y0234113D01*
X0082442Y0234113D01*
X0081741Y0234813D01*
X0082442Y0236915D02*
X0083843Y0236915D01*
X0084544Y0236214D01*
X0086345Y0236915D02*
X0087746Y0236915D01*
X0087046Y0237616D02*
X0087046Y0234813D01*
X0087746Y0234113D01*
X0089414Y0234813D02*
X0089414Y0236214D01*
X0090115Y0236915D01*
X0091516Y0236915D01*
X0092217Y0236214D01*
X0092217Y0235514D01*
X0089414Y0235514D01*
X0089414Y0234813D02*
X0090115Y0234113D01*
X0091516Y0234113D01*
X0094018Y0234113D02*
X0094018Y0236915D01*
X0094018Y0235514D02*
X0095420Y0236915D01*
X0096120Y0236915D01*
X0096385Y0229426D02*
X0097085Y0228725D01*
X0097085Y0225923D01*
X0096385Y0225222D01*
X0094984Y0225222D01*
X0094283Y0225923D01*
X0094283Y0228725D01*
X0094984Y0229426D01*
X0096385Y0229426D01*
X0098887Y0229426D02*
X0098887Y0225222D01*
X0098887Y0226624D02*
X0100989Y0226624D01*
X0101689Y0227324D01*
X0101689Y0228725D01*
X0100989Y0229426D01*
X0098887Y0229426D01*
X0103491Y0229426D02*
X0103491Y0225222D01*
X0103491Y0226624D02*
X0105593Y0226624D01*
X0106293Y0227324D01*
X0106293Y0228725D01*
X0105593Y0229426D01*
X0103491Y0229426D01*
X0108095Y0229426D02*
X0108095Y0225222D01*
X0110897Y0225222D01*
X0112699Y0225222D02*
X0112699Y0229426D01*
X0114800Y0229426D01*
X0115501Y0228725D01*
X0115501Y0227324D01*
X0114800Y0226624D01*
X0112699Y0226624D01*
X0114100Y0226624D02*
X0115501Y0225222D01*
X0110897Y0229426D02*
X0108095Y0229426D01*
X0108095Y0227324D02*
X0109496Y0227324D01*
X0114603Y0234113D02*
X0113201Y0235514D01*
X0113201Y0236915D01*
X0114603Y0238316D01*
X0116271Y0237616D02*
X0116971Y0238316D01*
X0118372Y0238316D01*
X0119073Y0237616D01*
X0116271Y0234813D01*
X0116971Y0234113D01*
X0118372Y0234113D01*
X0119073Y0234813D01*
X0119073Y0237616D01*
X0116271Y0237616D02*
X0116271Y0234813D01*
X0120875Y0234813D02*
X0121575Y0234813D01*
X0121575Y0234113D01*
X0120875Y0234113D01*
X0120875Y0234813D01*
X0123177Y0234813D02*
X0123177Y0237616D01*
X0123877Y0238316D01*
X0125278Y0238316D01*
X0125979Y0237616D01*
X0123177Y0234813D01*
X0123877Y0234113D01*
X0125278Y0234113D01*
X0125979Y0234813D01*
X0125979Y0237616D01*
X0127780Y0236214D02*
X0129182Y0237616D01*
X0130583Y0238316D01*
X0132384Y0237616D02*
X0133085Y0238316D01*
X0134486Y0238316D01*
X0135187Y0237616D01*
X0135187Y0236915D01*
X0132384Y0234113D01*
X0135187Y0234113D01*
X0136988Y0236915D02*
X0137689Y0237616D01*
X0137689Y0239017D01*
X0139090Y0239017D02*
X0139090Y0237616D01*
X0138390Y0236915D01*
X0140825Y0238316D02*
X0142226Y0236915D01*
X0142226Y0235514D01*
X0140825Y0234113D01*
X0143391Y0229426D02*
X0144793Y0228025D01*
X0144793Y0226624D01*
X0143391Y0225222D01*
X0141590Y0225222D02*
X0138788Y0225222D01*
X0141590Y0228025D01*
X0138788Y0228025D01*
X0136986Y0228725D02*
X0136986Y0225923D01*
X0136285Y0225222D01*
X0134884Y0225222D01*
X0134184Y0225923D01*
X0134184Y0228725D01*
X0134884Y0229426D01*
X0136285Y0229426D01*
X0136986Y0228725D01*
X0130583Y0234813D02*
X0129882Y0234113D01*
X0128481Y0234113D01*
X0127780Y0234813D01*
X0127780Y0236214D01*
X0129882Y0236214D01*
X0130583Y0235514D01*
X0130583Y0234813D01*
X0126377Y0229426D02*
X0124976Y0228025D01*
X0126377Y0229426D02*
X0126377Y0225222D01*
X0124976Y0225222D02*
X0127778Y0225222D01*
X0123308Y0225222D02*
X0121907Y0226624D01*
X0121907Y0228025D01*
X0123308Y0229426D01*
X0092481Y0228725D02*
X0091781Y0229426D01*
X0090380Y0229426D01*
X0089679Y0228725D01*
X0089679Y0225923D01*
X0090380Y0225222D01*
X0091781Y0225222D01*
X0092481Y0225923D01*
X0062902Y0251563D02*
X0062201Y0250863D01*
X0060099Y0250863D01*
X0060099Y0249461D02*
X0060099Y0253665D01*
X0062201Y0253665D01*
X0062902Y0252964D01*
X0062902Y0251563D01*
X0058298Y0250863D02*
X0058298Y0253665D01*
X0058298Y0250863D02*
X0056196Y0250863D01*
X0055496Y0251563D01*
X0055496Y0253665D01*
X0053761Y0253665D02*
X0051659Y0252264D01*
X0053761Y0250863D01*
X0051659Y0250863D02*
X0051659Y0255066D01*
X0049857Y0253665D02*
X0047756Y0253665D01*
X0047055Y0252964D01*
X0047055Y0251563D01*
X0047756Y0250863D01*
X0049857Y0250863D01*
X0045253Y0250863D02*
X0045253Y0252964D01*
X0044553Y0253665D01*
X0043152Y0253665D01*
X0043152Y0252264D02*
X0045253Y0252264D01*
X0045253Y0250863D02*
X0043152Y0250863D01*
X0042451Y0251563D01*
X0043152Y0252264D01*
X0040783Y0253665D02*
X0039382Y0253665D01*
X0040082Y0254366D02*
X0040082Y0251563D01*
X0040783Y0250863D01*
X0037580Y0251563D02*
X0036880Y0250863D01*
X0035478Y0250863D01*
X0034778Y0251563D01*
X0035478Y0252964D02*
X0036880Y0252964D01*
X0037580Y0252264D01*
X0037580Y0251563D01*
X0035478Y0252964D02*
X0034778Y0253665D01*
X0034778Y0254366D01*
X0035478Y0255066D01*
X0036880Y0255066D01*
X0037580Y0254366D01*
X0028372Y0255066D02*
X0028372Y0250863D01*
X0026271Y0250863D01*
X0025570Y0251563D01*
X0025570Y0252964D01*
X0026271Y0253665D01*
X0028372Y0253665D01*
X0023835Y0253665D02*
X0023135Y0253665D01*
X0021733Y0252264D01*
X0021733Y0250863D02*
X0021733Y0253665D01*
X0019932Y0252964D02*
X0019932Y0250863D01*
X0017830Y0250863D01*
X0017130Y0251563D01*
X0017830Y0252264D01*
X0019932Y0252264D01*
X0019932Y0252964D02*
X0019231Y0253665D01*
X0017830Y0253665D01*
X0015328Y0252964D02*
X0014627Y0253665D01*
X0013226Y0253665D01*
X0012526Y0252964D01*
X0012526Y0251563D01*
X0013226Y0250863D01*
X0014627Y0250863D01*
X0015328Y0251563D01*
X0015328Y0252964D01*
X0010724Y0252264D02*
X0010724Y0251563D01*
X0010023Y0250863D01*
X0007922Y0250863D01*
X0007922Y0255066D01*
X0010023Y0255066D01*
X0010724Y0254366D01*
X0010724Y0253665D01*
X0010023Y0252964D01*
X0007922Y0252964D01*
X0010023Y0252964D02*
X0010724Y0252264D01*
D15*
X0011806Y0275652D02*
X0013774Y0275652D01*
X0014758Y0276637D01*
X0014758Y0280573D01*
X0013774Y0281557D01*
X0011806Y0281557D01*
X0010822Y0280573D01*
X0010822Y0276637D01*
X0011806Y0275652D01*
X0017267Y0275652D02*
X0017267Y0279589D01*
X0020220Y0279589D01*
X0021204Y0278605D01*
X0021204Y0275652D01*
X0030158Y0275652D02*
X0030158Y0281557D01*
X0030158Y0279589D02*
X0033111Y0279589D01*
X0034095Y0278605D01*
X0034095Y0276637D01*
X0033111Y0275652D01*
X0030158Y0275652D01*
X0036604Y0276637D02*
X0037588Y0275652D01*
X0039556Y0275652D01*
X0040540Y0276637D01*
X0040540Y0278605D01*
X0039556Y0279589D01*
X0037588Y0279589D01*
X0036604Y0278605D01*
X0036604Y0276637D01*
X0043049Y0279589D02*
X0045017Y0279589D01*
X0044033Y0280573D02*
X0044033Y0276637D01*
X0045017Y0275652D01*
X0048330Y0276637D02*
X0049314Y0275652D01*
X0048330Y0276637D02*
X0048330Y0280573D01*
X0047346Y0279589D02*
X0049314Y0279589D01*
X0051643Y0278605D02*
X0051643Y0276637D01*
X0052627Y0275652D01*
X0054596Y0275652D01*
X0055580Y0276637D01*
X0055580Y0278605D01*
X0054596Y0279589D01*
X0052627Y0279589D01*
X0051643Y0278605D01*
X0058089Y0279589D02*
X0058089Y0275652D01*
X0060057Y0275652D02*
X0060057Y0278605D01*
X0061041Y0279589D01*
X0062025Y0278605D01*
X0062025Y0275652D01*
X0060057Y0278605D02*
X0059073Y0279589D01*
X0058089Y0279589D01*
X0070980Y0278605D02*
X0071964Y0277621D01*
X0073932Y0277621D01*
X0074916Y0276637D01*
X0073932Y0275652D01*
X0070980Y0275652D01*
X0070980Y0278605D02*
X0071964Y0279589D01*
X0074916Y0279589D01*
X0077425Y0279589D02*
X0078409Y0279589D01*
X0078409Y0275652D01*
X0077425Y0275652D02*
X0079393Y0275652D01*
X0081722Y0276637D02*
X0081722Y0278605D01*
X0082706Y0279589D01*
X0085659Y0279589D01*
X0085659Y0281557D02*
X0085659Y0275652D01*
X0082706Y0275652D01*
X0081722Y0276637D01*
X0088168Y0276637D02*
X0088168Y0278605D01*
X0089152Y0279589D01*
X0091120Y0279589D01*
X0092104Y0278605D01*
X0092104Y0277621D01*
X0088168Y0277621D01*
X0088168Y0276637D02*
X0089152Y0275652D01*
X0091120Y0275652D01*
X0078409Y0281557D02*
X0078409Y0282542D01*
D16*
X0167772Y0212102D02*
X0167772Y0168102D01*
X0245772Y0112602D02*
X0289772Y0112602D01*
X0367772Y0168102D02*
X0367772Y0212102D01*
M02*
