G75*
%MOIN*%
%OFA0B0*%
%FSLAX25Y25*%
%IPPOS*%
%LPD*%
%AMOC8*
5,1,8,0,0,1.08239X$1,22.5*
%
%ADD10C,0.01600*%
%ADD11R,2.00000X1.00000*%
%ADD12R,2.00000X0.10000*%
%ADD13R,0.10000X0.40000*%
%ADD14R,0.22500X0.10000*%
%ADD15R,1.00000X0.12500*%
%ADD16C,0.00000*%
%ADD17R,0.20800X0.09800*%
%ADD18R,0.09800X0.20800*%
%ADD19C,0.08600*%
%ADD20C,0.06800*%
%ADD21C,0.04100*%
%ADD22C,0.05600*%
%ADD23C,0.08400*%
%ADD24OC8,0.06650*%
D10*
X0167772Y0112602D02*
X0367772Y0112602D01*
X0367772Y0262602D01*
X0167772Y0262602D01*
X0167772Y0112602D01*
D11*
X0267772Y0162602D03*
X0267772Y0162602D03*
D12*
X0267772Y0257602D03*
D13*
X0172772Y0232602D03*
X0362772Y0232602D03*
D14*
X0354022Y0247602D03*
D15*
X0267772Y0211352D03*
D16*
X0167772Y0212102D02*
X0167772Y0168102D01*
X0245772Y0112602D02*
X0289772Y0112602D01*
X0367772Y0168102D02*
X0367772Y0212102D01*
D17*
X0357672Y0207502D03*
X0357672Y0172702D03*
X0177872Y0172702D03*
X0177872Y0207502D03*
D18*
X0250372Y0122702D03*
X0285172Y0122702D03*
D19*
X0292772Y0247602D03*
X0332772Y0247602D03*
D20*
X0277772Y0247102D02*
X0277772Y0253102D01*
X0267772Y0253102D02*
X0267772Y0247102D01*
X0257772Y0247102D02*
X0257772Y0253102D01*
D21*
X0215272Y0250102D03*
X0215272Y0242602D03*
X0215272Y0235102D03*
X0215272Y0227602D03*
X0215272Y0220102D03*
X0215272Y0212602D03*
X0215272Y0205102D03*
X0207772Y0205102D03*
X0200272Y0205102D03*
X0192772Y0205102D03*
X0185272Y0205102D03*
X0177772Y0205102D03*
X0177772Y0175102D03*
X0185272Y0175102D03*
X0192772Y0175102D03*
X0200272Y0175102D03*
X0207772Y0175102D03*
X0215272Y0175102D03*
X0222772Y0175102D03*
X0230272Y0175102D03*
X0237772Y0175102D03*
X0245272Y0175102D03*
X0245272Y0167602D03*
X0245272Y0160102D03*
X0245272Y0152602D03*
X0245272Y0145102D03*
X0245272Y0137602D03*
X0245272Y0130102D03*
X0252772Y0130102D03*
X0252772Y0137602D03*
X0252772Y0122602D03*
X0245272Y0122602D03*
X0282772Y0122602D03*
X0282772Y0130102D03*
X0282772Y0137602D03*
X0290272Y0145102D03*
X0290272Y0152602D03*
X0290272Y0160102D03*
X0290272Y0167602D03*
X0290272Y0175102D03*
X0297772Y0175102D03*
X0305272Y0175102D03*
X0312772Y0175102D03*
X0320272Y0175102D03*
X0327772Y0175102D03*
X0335272Y0175102D03*
X0342772Y0175102D03*
X0350272Y0175102D03*
X0357772Y0175102D03*
X0355272Y0205102D03*
X0347772Y0205102D03*
X0340272Y0205102D03*
X0332772Y0205102D03*
X0325272Y0205102D03*
X0317772Y0205102D03*
X0310272Y0202602D03*
X0310272Y0207602D03*
X0310272Y0212602D03*
X0290272Y0207602D03*
X0280272Y0207602D03*
X0270272Y0202602D03*
X0265272Y0202602D03*
X0225272Y0202602D03*
X0225272Y0207602D03*
X0225272Y0212602D03*
D22*
X0235272Y0207602D03*
X0240272Y0202602D03*
X0245272Y0207602D03*
X0250272Y0212602D03*
X0255272Y0207602D03*
X0250272Y0202602D03*
X0240272Y0212602D03*
X0298874Y0166224D03*
X0308874Y0166224D03*
X0318874Y0166224D03*
X0328874Y0166224D03*
X0338874Y0166224D03*
X0338874Y0156224D03*
X0348874Y0156224D03*
X0348874Y0146224D03*
X0338874Y0146224D03*
X0328874Y0146224D03*
X0318874Y0146224D03*
X0308874Y0146224D03*
X0298874Y0146224D03*
X0298874Y0156224D03*
X0308874Y0156224D03*
X0318874Y0156224D03*
X0328874Y0156224D03*
X0325252Y0136224D03*
X0333126Y0136224D03*
X0341000Y0136224D03*
X0348874Y0136224D03*
X0356748Y0136224D03*
X0362772Y0137602D03*
X0358874Y0146224D03*
X0358874Y0156224D03*
X0362772Y0167602D03*
X0317378Y0136224D03*
X0309504Y0136224D03*
X0301630Y0136224D03*
X0301630Y0128350D03*
X0309504Y0128350D03*
X0317378Y0128350D03*
X0325252Y0128350D03*
X0333126Y0128350D03*
X0341000Y0128350D03*
X0348874Y0128350D03*
X0356748Y0128350D03*
X0362772Y0127602D03*
X0356748Y0120476D03*
X0362772Y0117602D03*
X0348874Y0120476D03*
X0341000Y0120476D03*
X0333126Y0120476D03*
X0325252Y0120476D03*
X0317378Y0120476D03*
X0309504Y0120476D03*
X0302772Y0117602D03*
X0295272Y0117602D03*
X0287772Y0117602D03*
X0247772Y0117602D03*
X0237772Y0117602D03*
X0227772Y0117602D03*
X0217772Y0117602D03*
X0207772Y0117602D03*
X0197772Y0117602D03*
X0187772Y0117602D03*
X0177772Y0117602D03*
X0172772Y0135102D03*
X0172772Y0145102D03*
X0172772Y0155102D03*
X0172772Y0165102D03*
X0172772Y0175102D03*
X0172772Y0205102D03*
X0172772Y0215102D03*
X0172772Y0225102D03*
X0172772Y0235102D03*
X0172772Y0245102D03*
X0172772Y0255102D03*
X0182772Y0257602D03*
X0192772Y0257602D03*
X0202772Y0257602D03*
X0212772Y0257602D03*
X0222772Y0257602D03*
X0232772Y0257602D03*
X0242772Y0257602D03*
X0292772Y0257602D03*
X0302772Y0257602D03*
X0312772Y0257602D03*
X0322772Y0257602D03*
X0332772Y0257602D03*
X0342772Y0257602D03*
X0352772Y0257602D03*
X0362772Y0257602D03*
X0362772Y0237602D03*
X0362772Y0227602D03*
X0362772Y0217602D03*
X0362772Y0207602D03*
D23*
X0352772Y0217602D03*
X0342772Y0217602D03*
X0332772Y0217602D03*
X0332772Y0227602D03*
X0342772Y0227602D03*
X0352772Y0227602D03*
X0352772Y0237602D03*
X0342772Y0237602D03*
X0332772Y0237602D03*
X0315272Y0235102D03*
X0305272Y0235102D03*
X0305272Y0225102D03*
X0315272Y0225102D03*
X0295272Y0225102D03*
X0285272Y0225102D03*
X0285272Y0235102D03*
X0295272Y0235102D03*
X0273572Y0222702D03*
X0257772Y0222602D03*
X0241072Y0222702D03*
X0227772Y0222602D03*
X0232772Y0250102D03*
X0242772Y0250102D03*
X0222772Y0250102D03*
X0227772Y0155102D03*
X0227772Y0145102D03*
X0217772Y0145102D03*
X0207772Y0145102D03*
X0207772Y0155102D03*
X0217772Y0155102D03*
X0217772Y0135102D03*
X0207772Y0135102D03*
X0207772Y0125102D03*
X0217772Y0125102D03*
X0227772Y0125102D03*
X0227772Y0135102D03*
X0197772Y0125102D03*
X0187772Y0125102D03*
X0177772Y0125102D03*
D24*
X0187772Y0160102D03*
X0197772Y0160102D03*
M02*
